<?xml version="1.0" encoding="UTF-8" standalone="no"?>
<!-- Created with Inkscape (http://www.inkscape.org/) -->

<svg
   width="100mm"
   height="100mm"
   viewBox="0 0 100 100"
   version="1.1"
   id="svg300"
   inkscape:version="1.2.1 (9c6d41e410, 2022-07-14)"
   sodipodi:docname="alt_i.svg"
   xmlns:inkscape="http://www.inkscape.org/namespaces/inkscape"
   xmlns:sodipodi="http://sodipodi.sourceforge.net/DTD/sodipodi-0.dtd"
   xmlns="http://www.w3.org/2000/svg"
   xmlns:svg="http://www.w3.org/2000/svg">
  <sodipodi:namedview
     id="namedview302"
     pagecolor="#ffffff"
     bordercolor="#000000"
     borderopacity="0.25"
     inkscape:showpageshadow="2"
     inkscape:pageopacity="0.50588235"
     inkscape:pagecheckerboard="0"
     inkscape:deskcolor="#d1d1d1"
     inkscape:document-units="mm"
     showgrid="false"
     inkscape:zoom="1.104894"
     inkscape:cx="304.5541"
     inkscape:cy="274.23445"
     inkscape:window-width="1858"
     inkscape:window-height="1057"
     inkscape:window-x="1912"
     inkscape:window-y="-8"
     inkscape:window-maximized="1"
     inkscape:current-layer="layer1" />
  <defs
     id="defs297">
    <inkscape:path-effect
       effect="fillet_chamfer"
       id="path-effect439"
       is_visible="true"
       lpeversion="1"
       nodesatellites_param="F,0,0,1,0,3.7041667,0,1 @ F,0,0,1,0,3.7041667,0,1 @ F,0,0,1,0,3.7041667,0,1 @ F,0,0,1,0,3.7041667,0,1 | F,0,0,1,0,3.7041667,0,1 @ F,0,0,1,0,3.7041667,0,1 @ F,0,0,1,0,3.7041667,0,1 @ F,0,0,1,0,3.7041667,0,1"
       unit="px"
       method="auto"
       mode="F"
       radius="14"
       chamfer_steps="1"
       flexible="false"
       use_knot_distance="true"
       apply_no_radius="true"
       apply_with_radius="true"
       only_selected="false"
       hide_knots="false" />
  </defs>
  <g
     inkscape:label="Layer 1"
     inkscape:groupmode="layer"
     id="layer1">
    <path
       id="path3430"
       style="stroke-width:9.86363"
       d="m 53.682029,79.57457 a 4.4499998,4.4499998 0 0 1 -4.45,4.45 4.4499998,4.4499998 0 0 1 -4.45,-4.45 4.4499998,4.4499998 0 0 1 4.45,-4.45 4.4499998,4.4499998 0 0 1 4.45,4.45 z m -8.931281,-12.576101 0.04234,-4.639902 c 0.02779,-3.045699 0.378185,-5.501135 1.134555,-7.365927 0.75637,-1.926951 1.716377,-3.512023 2.880024,-4.755218 1.221828,-1.243195 2.472746,-2.486388 3.752757,-3.729583 1.803652,-1.616152 3.345482,-3.263385 4.625493,-4.941698 1.28001,-1.740471 1.920015,-4.040381 1.920015,-6.899728 0,-2.921507 -0.930916,-5.252497 -2.79275,-6.992968 -1.861833,-1.740473 -3.927304,-2.610709 -6.196414,-2.610709 -2.850933,0 -5.178224,0.932396 -6.981875,2.797187 -1.745469,1.864792 -3.02548,4.071462 -3.840032,6.62001 L 31.963889,30.93683 c 0.407276,-1.305354 1.076372,-2.797188 2.007288,-4.4755 0.930917,-1.678312 2.152745,-3.294465 3.665485,-4.848458 1.570922,-1.553993 3.461846,-2.828267 5.672773,-3.822822 2.210927,-0.994557 4.770949,-1.491834 7.680064,-1.491834 3.258208,0 6.196414,0.683757 8.814617,2.051271 2.676386,1.305354 4.770948,3.263385 6.283688,5.874093 1.570922,2.610708 2.356383,5.843014 2.356383,9.696916 0,3.045827 -0.407276,5.594375 -1.221828,7.645645 -0.814553,1.989112 -1.861833,3.729584 -3.141844,5.221417 -1.280011,1.491833 -2.618203,2.921507 -4.014578,4.289021 -1.163646,1.118874 -2.240018,2.237749 -3.229118,3.356624 -0.989099,1.118875 -1.77456,2.455309 -2.356383,4.009301 -0.581822,1.491834 -0.872734,3.480945 -0.872734,5.967334 l 0.02117,2.578048 z M 35.759143,36.849334 q -1.76036,0 -2.892019,-1.203985 -1.068791,-1.284244 -1.068791,-3.290882 0,-1.926371 1.13166,-3.210619 1.131661,-1.364515 2.82915,-1.364515 1.697488,0 2.766278,1.364515 1.131661,1.284248 1.131661,3.210619 0,2.006638 -1.068789,3.290882 -1.068791,1.203985 -2.82915,1.203985 z m 13.479591,34.310999 q -1.9824,0 -3.256801,-1.128319 -1.2036,-1.203538 -1.2036,-3.08407 0,-1.80531 1.2744,-3.008849 1.274402,-1.278761 3.186001,-1.278761 1.911599,0 3.115199,1.278761 1.2744,1.203539 1.2744,3.008849 0,1.880532 -1.203599,3.08407 -1.203601,1.128319 -3.186,1.128319 z M 14.731401,0 C 6.5701891,0 0,6.5701891 0,14.731401 V 85.268697 C 0,93.429908 6.5701891,100.0001 14.731401,100.0001 h 70.537296 c 8.161211,0 14.731403,-6.570192 14.731403,-14.731403 V 14.731401 C 100.0001,6.5701891 93.429908,0 85.268697,0 Z M 50.000049,9.9999064 A 40,40 0 0 1 90.000191,50.000049 40,40 0 0 1 50.000049,90.000191 40,40 0 0 1 9.9999064,50.000049 40,40 0 0 1 50.000049,9.9999064 Z" />
  </g>
</svg>
