<?xml version="1.0" encoding="UTF-8" standalone="no"?>
<!-- Created with Inkscape (http://www.inkscape.org/) -->

<svg
   width="100mm"
   height="100mm"
   viewBox="0 0 100 100"
   version="1.1"
   id="svg300"
   inkscape:version="1.2.1 (9c6d41e410, 2022-07-14)"
   sodipodi:docname="close_i.svg"
   xmlns:inkscape="http://www.inkscape.org/namespaces/inkscape"
   xmlns:sodipodi="http://sodipodi.sourceforge.net/DTD/sodipodi-0.dtd"
   xmlns="http://www.w3.org/2000/svg"
   xmlns:svg="http://www.w3.org/2000/svg">
  <sodipodi:namedview
     id="namedview302"
     pagecolor="#ffffff"
     bordercolor="#000000"
     borderopacity="0.25"
     inkscape:showpageshadow="2"
     inkscape:pageopacity="0.50588235"
     inkscape:pagecheckerboard="0"
     inkscape:deskcolor="#d1d1d1"
     inkscape:document-units="mm"
     showgrid="false"
     inkscape:zoom="1.5625561"
     inkscape:cx="217.91217"
     inkscape:cy="196.47294"
     inkscape:window-width="1858"
     inkscape:window-height="1057"
     inkscape:window-x="1912"
     inkscape:window-y="-8"
     inkscape:window-maximized="1"
     inkscape:current-layer="layer1" />
  <defs
     id="defs297">
    <inkscape:path-effect
       effect="fillet_chamfer"
       id="path-effect439"
       is_visible="true"
       lpeversion="1"
       nodesatellites_param="F,0,0,1,0,3.7041667,0,1 @ F,0,0,1,0,3.7041667,0,1 @ F,0,0,1,0,3.7041667,0,1 @ F,0,0,1,0,3.7041667,0,1 | F,0,0,1,0,3.7041667,0,1 @ F,0,0,1,0,3.7041667,0,1 @ F,0,0,1,0,3.7041667,0,1 @ F,0,0,1,0,3.7041667,0,1"
       unit="px"
       method="auto"
       mode="F"
       radius="14"
       chamfer_steps="1"
       flexible="false"
       use_knot_distance="true"
       apply_no_radius="true"
       apply_with_radius="true"
       only_selected="false"
       hide_knots="false" />
  </defs>
  <g
     inkscape:label="Layer 1"
     inkscape:groupmode="layer"
     id="layer1">
    <path
       id="rect358"
       style="fill:#000000;stroke-width:0.268831"
       d="M 14.731401 0 C 6.5701737 1.2533172e-15 0 6.5701737 0 14.731401 L 0 85.268697 C 1.2533172e-15 93.429924 6.5701737 100.0001 14.731401 100.0001 L 85.268697 100.0001 C 93.429924 100.0001 100.0001 93.429924 100.0001 85.268697 L 100.0001 14.731401 C 100.0001 6.5701737 93.429924 0 85.268697 0 L 14.731401 0 z M 33.029508 26.078512 A 3.7041667 3.7041667 0 0 1 35.64847 27.1632 L 50.511646 42.026375 L 64.862708 27.674797 A 3.7041667 3.7041667 0 0 1 70.101147 27.674797 L 73.347978 30.921627 A 3.7041667 3.7041667 0 0 1 73.347978 36.160067 L 58.996916 50.511646 L 72.836381 64.351111 A 3.7041667 3.7041667 0 0 1 72.836381 69.589551 L 69.589551 72.836381 A 3.7041667 3.7041667 0 0 1 64.351111 72.836381 L 50.511646 58.996916 L 36.160067 73.347978 A 3.7041667 3.7041667 0 0 1 30.921627 73.347978 L 27.674797 70.101147 A 3.7041667 3.7041667 0 0 1 27.674797 64.862708 L 42.026375 50.511646 L 27.1632 35.64847 A 3.7041667 3.7041667 0 0 1 27.1632 30.41003 L 30.41003 27.1632 A 3.7041667 3.7041667 0 0 1 33.029508 26.078512 z " />
  </g>
</svg>
