<?xml version="1.0" encoding="UTF-8" standalone="no"?>
<!-- Created with Inkscape (http://www.inkscape.org/) -->

<svg
   width="100mm"
   height="100mm"
   viewBox="0 0 100 100"
   version="1.1"
   id="svg300"
   inkscape:version="1.2.1 (9c6d41e410, 2022-07-14)"
   sodipodi:docname="max_i.svg"
   xmlns:inkscape="http://www.inkscape.org/namespaces/inkscape"
   xmlns:sodipodi="http://sodipodi.sourceforge.net/DTD/sodipodi-0.dtd"
   xmlns="http://www.w3.org/2000/svg"
   xmlns:svg="http://www.w3.org/2000/svg">
  <sodipodi:namedview
     id="namedview302"
     pagecolor="#ffffff"
     bordercolor="#000000"
     borderopacity="0.25"
     inkscape:showpageshadow="2"
     inkscape:pageopacity="0.50588235"
     inkscape:pagecheckerboard="0"
     inkscape:deskcolor="#d1d1d1"
     inkscape:document-units="mm"
     showgrid="false"
     inkscape:zoom="1.5625561"
     inkscape:cx="205.75261"
     inkscape:cy="196.47294"
     inkscape:window-width="1858"
     inkscape:window-height="1057"
     inkscape:window-x="1912"
     inkscape:window-y="-8"
     inkscape:window-maximized="1"
     inkscape:current-layer="layer1" />
  <defs
     id="defs297">
    <inkscape:path-effect
       effect="fillet_chamfer"
       id="path-effect439"
       is_visible="true"
       lpeversion="1"
       nodesatellites_param="F,0,0,1,0,3.7041667,0,1 @ F,0,0,1,0,3.7041667,0,1 @ F,0,0,1,0,3.7041667,0,1 @ F,0,0,1,0,3.7041667,0,1 | F,0,0,1,0,3.7041667,0,1 @ F,0,0,1,0,3.7041667,0,1 @ F,0,0,1,0,3.7041667,0,1 @ F,0,0,1,0,3.7041667,0,1"
       unit="px"
       method="auto"
       mode="F"
       radius="14"
       chamfer_steps="1"
       flexible="false"
       use_knot_distance="true"
       apply_no_radius="true"
       apply_with_radius="true"
       only_selected="false"
       hide_knots="false" />
  </defs>
  <g
     inkscape:label="Layer 1"
     inkscape:groupmode="layer"
     id="layer1">
    <path
       id="rect358"
       style="fill:#000000;stroke-width:0.268831"
       d="M 14.731401 0 C 6.5701814 0 -2.5066344e-15 6.5701814 0 14.731401 L 0 85.268697 C 0 93.429916 6.5701814 100.0001 14.731401 100.0001 L 85.268697 100.0001 C 93.429916 100.0001 100.0001 93.429916 100.0001 85.268697 L 100.0001 14.731401 C 100.0001 6.5701814 93.429916 -2.5066344e-15 85.268697 0 L 14.731401 0 z M 16.000057 9.9999064 L 84.000041 9.9999064 C 87.324037 9.9999064 90.000191 12.67606 90.000191 16.000057 C 90.000191 19.324054 87.324037 22.000208 84.000041 22.000208 L 16.000057 22.000208 C 12.67606 22.000208 9.9999064 19.324054 9.9999064 16.000057 C 9.9999064 12.67606 12.67606 9.9999064 16.000057 9.9999064 z " />
  </g>
</svg>
