<?xml version="1.0" encoding="UTF-8" standalone="no"?>
<!-- Created with Inkscape (http://www.inkscape.org/) -->

<svg
   width="100mm"
   height="100mm"
   viewBox="0 0 100 100"
   version="1.1"
   id="svg300"
   inkscape:version="1.2.1 (9c6d41e410, 2022-07-14)"
   sodipodi:docname="restore_i.svg"
   xmlns:inkscape="http://www.inkscape.org/namespaces/inkscape"
   xmlns:sodipodi="http://sodipodi.sourceforge.net/DTD/sodipodi-0.dtd"
   xmlns="http://www.w3.org/2000/svg"
   xmlns:svg="http://www.w3.org/2000/svg">
  <sodipodi:namedview
     id="namedview302"
     pagecolor="#ffffff"
     bordercolor="#000000"
     borderopacity="0.25"
     inkscape:showpageshadow="2"
     inkscape:pageopacity="0.50588235"
     inkscape:pagecheckerboard="0"
     inkscape:deskcolor="#d1d1d1"
     inkscape:document-units="mm"
     showgrid="false"
     inkscape:zoom="1.4142136"
     inkscape:cx="120.56171"
     inkscape:cy="164.75588"
     inkscape:window-width="1858"
     inkscape:window-height="1057"
     inkscape:window-x="1912"
     inkscape:window-y="-8"
     inkscape:window-maximized="1"
     inkscape:current-layer="layer1" />
  <defs
     id="defs297">
    <inkscape:path-effect
       effect="fillet_chamfer"
       id="path-effect439"
       is_visible="true"
       lpeversion="1"
       nodesatellites_param="F,0,0,1,0,3.7041667,0,1 @ F,0,0,1,0,3.7041667,0,1 @ F,0,0,1,0,3.7041667,0,1 @ F,0,0,1,0,3.7041667,0,1 | F,0,0,1,0,3.7041667,0,1 @ F,0,0,1,0,3.7041667,0,1 @ F,0,0,1,0,3.7041667,0,1 @ F,0,0,1,0,3.7041667,0,1"
       unit="px"
       method="auto"
       mode="F"
       radius="14"
       chamfer_steps="1"
       flexible="false"
       use_knot_distance="true"
       apply_no_radius="true"
       apply_with_radius="true"
       only_selected="false"
       hide_knots="false" />
  </defs>
  <g
     inkscape:label="Layer 1"
     inkscape:groupmode="layer"
     id="layer1">
    <path
       id="path488-7"
       style="fill:#000000;stroke-width:0.201623"
       d="M 36.048446 0 C 29.927556 0 25.000024 4.9275313 25.000024 11.048421 L 25.000024 21.058146 L 64.479785 21.058146 C 72.491608 21.058146 78.941435 27.508489 78.941435 35.520312 L 78.941435 75.000073 L 88.951676 75.000073 C 95.072566 75.000073 100.0001 70.072546 100.0001 63.951652 L 100.0001 11.048421 C 100.0001 4.9275313 95.072566 0 88.951676 0 L 36.048446 0 z M 36.999809 7.4998006 L 87.999797 7.4998006 C 90.492783 7.4998006 92.500297 9.5067968 92.500297 11.999784 C 92.500297 14.492772 90.492783 16.500285 87.999797 16.500285 L 36.999809 16.500285 C 34.50682 16.500285 32.499825 14.492772 32.499825 11.999784 C 32.499825 9.5067968 34.50682 7.4998006 36.999809 7.4998006 z " />
    <path
       id="path488"
       style="fill:#000000;stroke-width:0.201623"
       d="M 11.048539,25 C 4.9276427,25 0,29.927643 0,36.048539 V 88.95146 C 0,95.07236 4.9276427,100 11.048539,100 h 52.90292 C 70.072355,100 75,95.07236 75,88.95146 V 36.048539 C 75,29.927643 70.072355,25 63.951459,25 Z m 0.951491,7.499922 h 50.999938 c 2.492989,0 4.500109,2.007118 4.500109,4.500108 0,2.49299 -2.00712,4.500109 -4.500109,4.500109 H 12.00003 c -2.492991,0 -4.5001076,-2.007119 -4.5001076,-4.500109 0,-2.49299 2.0071166,-4.500108 4.5001076,-4.500108 z" />
  </g>
</svg>
