<?xml version="1.0" encoding="UTF-8" standalone="no"?>
<!-- Created with Inkscape (http://www.inkscape.org/) -->

<svg
   width="100mm"
   height="100mm"
   viewBox="0 0 100 100"
   version="1.1"
   id="svg300"
   inkscape:version="1.2.1 (9c6d41e410, 2022-07-14)"
   sodipodi:docname="settings_i.svg"
   xmlns:inkscape="http://www.inkscape.org/namespaces/inkscape"
   xmlns:sodipodi="http://sodipodi.sourceforge.net/DTD/sodipodi-0.dtd"
   xmlns="http://www.w3.org/2000/svg"
   xmlns:svg="http://www.w3.org/2000/svg">
  <sodipodi:namedview
     id="namedview302"
     pagecolor="#ffffff"
     bordercolor="#000000"
     borderopacity="0.25"
     inkscape:showpageshadow="2"
     inkscape:pageopacity="0.50588235"
     inkscape:pagecheckerboard="0"
     inkscape:deskcolor="#d1d1d1"
     inkscape:document-units="mm"
     showgrid="false"
     inkscape:zoom="1.5625561"
     inkscape:cx="157.11436"
     inkscape:cy="215.03228"
     inkscape:window-width="1858"
     inkscape:window-height="1057"
     inkscape:window-x="1912"
     inkscape:window-y="-8"
     inkscape:window-maximized="1"
     inkscape:current-layer="layer1" />
  <defs
     id="defs297">
    <inkscape:path-effect
       effect="fillet_chamfer"
       id="path-effect439"
       is_visible="true"
       lpeversion="1"
       nodesatellites_param="F,0,0,1,0,3.7041667,0,1 @ F,0,0,1,0,3.7041667,0,1 @ F,0,0,1,0,3.7041667,0,1 @ F,0,0,1,0,3.7041667,0,1 | F,0,0,1,0,3.7041667,0,1 @ F,0,0,1,0,3.7041667,0,1 @ F,0,0,1,0,3.7041667,0,1 @ F,0,0,1,0,3.7041667,0,1"
       unit="px"
       method="auto"
       mode="F"
       radius="14"
       chamfer_steps="1"
       flexible="false"
       use_knot_distance="true"
       apply_no_radius="true"
       apply_with_radius="true"
       only_selected="false"
       hide_knots="false" />
  </defs>
  <g
     inkscape:label="Layer 1"
     inkscape:groupmode="layer"
     id="layer1">
    <path
       id="rect358"
       style="fill:#000000;stroke-width:0.268831"
       d="M 14.731401 0 C 6.5701891 0 -2.5066344e-15 6.5701891 0 14.731401 L 0 85.268697 C 0 93.429908 6.5701891 100.0001 14.731401 100.0001 L 85.268697 100.0001 C 93.429908 100.0001 100.0001 93.429908 100.0001 85.268697 L 100.0001 14.731401 C 100.0001 6.5701891 93.429908 -2.5066344e-15 85.268697 0 L 14.731401 0 z M 22.307682 9.9999064 C 25.706141 9.9999064 28.461312 12.755594 28.461312 16.154053 L 28.461312 25.384497 C 31.859772 25.384497 34.615458 28.140186 34.615458 31.538643 C 34.615458 34.937102 31.859772 37.692273 28.461312 37.692273 L 28.461312 65.384639 C 28.461312 68.783098 25.706141 71.538269 22.307682 71.538269 C 18.909224 71.538269 16.154053 68.783098 16.154053 65.384639 L 16.154053 37.692273 C 12.755595 37.692273 9.9999064 34.937102 9.9999064 31.538643 C 9.9999064 28.140186 12.755595 25.384497 16.154053 25.384497 L 16.154053 16.154053 C 16.154053 12.755594 18.909224 9.9999064 22.307682 9.9999064 z M 50.000049 9.9999064 C 53.398507 9.9999064 56.153678 12.755594 56.153678 16.154053 L 56.153678 50.000049 C 59.552137 50.000049 62.307825 52.75522 62.307825 56.153678 C 62.307825 59.552137 59.552137 62.307825 56.153678 62.307825 L 56.153678 65.384639 C 56.153678 68.783098 53.398507 71.538269 50.000049 71.538269 C 46.601594 71.538269 43.845903 68.783098 43.845903 65.384639 L 43.845903 62.307825 C 40.447442 62.307825 37.692273 59.552137 37.692273 56.153678 C 37.692273 52.75522 40.447442 50.000049 43.845903 50.000049 L 43.845903 16.154053 C 43.845903 12.755594 46.601594 9.9999064 50.000049 9.9999064 z M 77.692415 9.9999064 C 81.090875 9.9999064 83.846045 12.755594 83.846045 16.154053 L 83.846045 25.384497 C 87.244509 25.384497 90.000191 28.140186 90.000191 31.538643 C 90.000191 34.937102 87.244509 37.692273 83.846045 37.692273 L 83.846045 65.384639 C 83.846045 68.783098 81.090875 71.538269 77.692415 71.538269 C 74.293962 71.538269 71.538269 68.783098 71.538269 65.384639 L 71.538269 37.692273 C 68.13981 37.692273 65.384639 34.937102 65.384639 31.538643 C 65.384639 28.140186 68.13981 25.384497 71.538269 25.384497 L 71.538269 16.154053 C 71.538269 12.755594 74.293962 9.9999064 77.692415 9.9999064 z M 22.307682 77.692415 C 25.706526 77.692415 28.461312 80.447199 28.461312 83.846045 C 28.461312 87.244504 25.706526 90.000191 22.307682 90.000191 C 18.909224 90.000191 16.154053 87.244504 16.154053 83.846045 C 16.154053 80.447199 18.909224 77.692415 22.307682 77.692415 z M 50.000049 77.692415 C 53.398894 77.692415 56.153678 80.447199 56.153678 83.846045 C 56.153678 87.244504 53.398894 90.000191 50.000049 90.000191 C 46.601594 90.000191 43.845903 87.244504 43.845903 83.846045 C 43.845903 80.447199 46.601594 77.692415 50.000049 77.692415 z M 77.692415 77.692415 C 81.091261 77.692415 83.846045 80.447199 83.846045 83.846045 C 83.846045 87.244504 81.091261 90.000191 77.692415 90.000191 C 74.293962 90.000191 71.538269 87.244504 71.538269 83.846045 C 71.538269 80.447199 74.293962 77.692415 77.692415 77.692415 z " />
  </g>
</svg>
